<?xml version="1.0" standalone="no"?>
<!DOCTYPE svg PUBLIC "-//W3C//DTD SVG 20010904//EN"
 "http://www.w3.org/TR/2001/REC-SVG-20010904/DTD/svg10.dtd">
<svg version="1.0" xmlns="http://www.w3.org/2000/svg"
 width="976.000000pt" height="976.000000pt" viewBox="0 0 976.000000 976.000000"
 preserveAspectRatio="xMidYMid meet">
<metadata>
Created by potrace 1.11, written by Peter Selinger 2001-2013
</metadata>
<g transform="translate(0.000000,976.000000) scale(0.100000,-0.100000)"
fill="#000000" stroke="none">
<path d="M4328 9515 c-2 -1 -43 -5 -93 -9 -169 -12 -230 -17 -245 -22 -8 -3
-37 -8 -65 -10 -43 -5 -110 -16 -230 -39 -16 -3 -61 -12 -100 -21 -38 -9 -81
-18 -95 -20 -31 -6 -145 -37 -273 -76 -112 -34 -111 -21 -7 -139 75 -85 348
-362 401 -408 l36 -30 31 27 c17 15 40 34 52 42 42 29 95 72 102 83 4 7 8 8 8
4 0 -5 19 6 42 25 23 18 52 40 64 48 71 49 445 297 465 309 20 13 204 123 249
151 8 5 43 23 77 41 35 18 58 36 52 40 -10 6 -464 10 -471 4z"/>
<path d="M5600 9380 c-8 -5 -82 -43 -165 -83 -172 -84 -393 -199 -447 -234
-21 -12 -42 -23 -48 -23 -5 0 -10 -4 -10 -10 0 -5 -5 -10 -11 -10 -38 0 -548
-331 -794 -515 -44 -33 -84 -63 -90 -67 -6 -5 1 -18 18 -33 15 -14 27 -22 27
-18 0 4 4 3 8 -3 11 -17 140 -114 151 -114 5 0 11 -4 13 -8 2 -5 35 -31 73
-57 39 -27 91 -64 117 -82 26 -18 50 -33 52 -33 2 0 44 -26 92 -58 141 -93
442 -261 654 -366 108 -53 201 -96 206 -96 6 0 23 28 39 63 15 34 83 188 152
342 138 312 140 316 178 400 92 202 157 352 159 363 1 7 8 18 14 24 7 7 12 15
12 20 0 7 87 207 147 338 43 93 44 98 25 105 -83 33 -371 126 -402 130 -8 1
-22 5 -30 8 -19 8 -102 27 -115 26 -5 0 -17 -4 -25 -9z"/>
<path d="M2495 9022 c-250 -130 -489 -277 -479 -294 4 -7 2 -8 -4 -4 -17 10
-267 -172 -412 -301 -19 -17 -57 -50 -85 -74 -77 -66 -283 -273 -372 -374
-125 -141 -284 -346 -338 -434 -5 -9 -12 -18 -15 -21 -3 -3 -40 -59 -81 -125
-76 -123 -81 -130 -122 -201 l-24 -42 31 -34 c27 -29 116 -106 187 -161 67
-52 290 -196 413 -267 170 -97 219 -125 321 -180 28 -15 84 -46 126 -69 l77
-41 22 42 c39 75 82 153 92 165 5 7 6 18 2 25 -4 7 -4 10 1 6 6 -6 66 86 139
217 19 33 232 360 249 380 4 6 32 44 62 85 30 41 58 80 62 85 5 6 44 57 88
115 44 58 85 110 91 115 6 6 35 39 63 74 29 35 58 70 64 76 7 7 31 34 54 61
53 63 98 112 184 200 38 39 65 74 61 78 -4 4 -2 6 3 4 6 -2 66 52 134 120 68
67 126 122 128 122 3 0 20 14 38 31 l33 31 -157 157 c-174 175 -248 255 -390
424 -40 48 -78 87 -85 87 -6 0 -78 -35 -161 -78z"/>
<path d="M6587 8947 c-19 -41 -38 -84 -42 -98 -4 -13 -11 -28 -15 -34 -4 -5
-67 -145 -140 -310 -144 -328 -150 -339 -209 -468 -23 -49 -41 -92 -41 -95 0
-4 -7 -20 -15 -35 -8 -16 -47 -101 -86 -190 -39 -89 -85 -191 -101 -227 -49
-106 -50 -110 -30 -116 9 -3 26 -10 37 -15 44 -20 335 -118 335 -112 0 3 6 1
13 -4 9 -8 76 -30 117 -39 3 0 12 -4 20 -7 57 -25 629 -166 775 -192 17 -2 41
-7 55 -10 14 -3 41 -8 60 -11 19 -3 42 -7 50 -9 8 -2 37 -7 64 -11 l48 -6 -6
204 c-4 111 -8 228 -10 258 -2 30 -7 100 -11 155 -3 55 -8 116 -10 135 -5 43
-13 117 -20 190 -3 30 -8 69 -10 85 -6 37 -12 85 -20 150 -3 28 -13 88 -21
135 -9 47 -18 101 -21 120 -3 19 -13 73 -22 119 -16 82 -18 86 -61 118 -71 52
-319 216 -385 255 -135 79 -247 138 -261 138 -1 0 -18 -33 -37 -73z"/>
<path d="M3576 8057 c-307 -277 -637 -643 -877 -971 -49 -67 -92 -125 -97
-131 -27 -33 -72 -105 -72 -114 0 -6 -4 -11 -8 -11 -5 0 -19 -18 -33 -41 -32
-55 -37 -63 -90 -144 -53 -81 -145 -241 -213 -367 l-46 -88 40 -20 c21 -11 46
-20 54 -20 8 0 16 -3 18 -8 4 -9 289 -145 306 -145 6 0 12 -4 12 -8 0 -4 17
-14 38 -22 20 -8 71 -31 112 -50 41 -19 98 -45 125 -57 28 -12 84 -38 125 -57
41 -19 80 -36 85 -37 6 -1 24 -9 40 -18 17 -9 57 -27 90 -41 33 -14 89 -39
125 -55 36 -16 115 -51 175 -77 106 -45 137 -58 208 -89 127 -56 368 -159 447
-191 30 -13 100 -41 154 -64 55 -23 100 -41 101 -41 1 0 10 19 20 43 10 23 35
79 57 124 21 46 38 85 38 88 0 4 19 47 86 193 19 41 34 75 34 77 0 2 13 32 29
67 16 35 48 106 71 158 23 52 51 114 61 138 10 23 28 63 40 90 22 51 22 51
104 232 31 69 58 130 59 135 2 6 18 42 35 80 40 86 43 94 126 280 80 179 97
218 102 227 2 4 -108 63 -244 131 -212 106 -452 237 -539 294 -13 8 -24 12
-24 7 0 -4 -6 0 -12 9 -7 9 -19 17 -27 19 -7 2 -24 13 -37 26 -13 12 -30 22
-39 22 -8 0 -15 5 -15 10 0 6 -7 10 -15 10 -8 0 -15 5 -15 10 0 6 -4 10 -9 10
-11 0 -310 202 -366 247 -5 5 -26 20 -45 33 -19 13 -40 29 -46 35 -32 28 -55
45 -63 45 -5 0 -11 3 -13 8 -3 8 -93 82 -99 82 -2 0 -35 -29 -73 -63z"/>
<path d="M7886 8030 c3 -30 7 -68 9 -85 2 -16 6 -59 10 -95 3 -36 8 -83 10
-104 2 -21 7 -75 10 -120 3 -45 8 -106 10 -136 7 -86 18 -374 19 -491 l0 -107
71 -7 c38 -4 84 -8 100 -10 91 -10 218 -19 463 -31 l124 -6 -7 24 c-4 13 -40
86 -79 163 -63 121 -92 174 -149 270 -104 176 -368 539 -488 670 -15 17 -46
50 -68 75 l-41 45 6 -55z"/>
<path d="M5631 6802 c-59 -133 -97 -221 -136 -307 -167 -373 -205 -459 -201
-462 2 -2 39 14 82 36 103 51 256 112 369 144 250 73 423 95 705 92 118 -2
231 -5 250 -8 19 -3 58 -8 85 -11 28 -3 77 -10 110 -16 33 -6 76 -13 95 -16
57 -9 330 -81 394 -103 33 -12 61 -19 63 -17 11 11 27 346 17 347 -5 0 -16 2
-24 4 -20 4 -61 11 -145 25 -38 6 -101 17 -140 25 -38 8 -81 16 -95 19 -55 10
-353 79 -475 111 -249 64 -551 158 -770 240 -49 19 -97 36 -105 39 -11 4 -31
-30 -79 -142z"/>
<path d="M325 6645 c-14 -32 -25 -63 -25 -70 0 -6 -3 -15 -7 -19 -5 -4 -8 -11
-9 -14 0 -4 -5 -18 -12 -32 -36 -80 -152 -485 -168 -588 -3 -20 -7 -39 -9 -42
-8 -12 -54 -291 -60 -365 -3 -27 -7 -61 -10 -74 -27 -137 -27 -753 0 -956 3
-16 7 -50 9 -75 6 -55 15 -118 21 -145 2 -11 7 -42 11 -70 3 -27 8 -53 10 -57
3 -4 7 -24 10 -45 3 -21 13 -74 23 -118 l17 -80 120 -22 c65 -12 137 -24 159
-27 22 -3 54 -8 70 -12 17 -3 120 -24 230 -46 110 -22 203 -42 207 -44 11 -7
17 10 23 57 19 164 17 155 50 349 56 333 147 728 225 979 17 55 28 106 24 112
-4 7 -3 9 3 6 6 -4 16 13 23 41 6 26 16 58 22 72 6 14 21 59 35 100 22 67 91
253 113 305 5 11 21 49 35 85 15 36 32 75 37 87 6 12 8 28 5 35 -3 7 -45 33
-93 58 -49 24 -118 61 -154 81 -36 20 -90 49 -120 66 -97 53 -231 133 -420
250 -48 30 -136 89 -165 110 -6 5 -28 21 -50 37 -22 16 -66 52 -97 79 l-58 49
-25 -57z"/>
<path d="M7943 6408 c-1 -26 -15 -264 -18 -298 -2 -19 -6 -67 -10 -105 l-7
-70 122 -69 c111 -63 368 -229 380 -245 3 -4 21 -18 40 -31 41 -28 175 -137
240 -195 95 -85 308 -305 365 -378 33 -42 63 -76 66 -76 11 -2 -8 366 -27 524
-8 66 -17 138 -20 160 -4 35 -23 140 -39 215 -18 88 -26 127 -29 145 -4 22
-35 144 -40 160 -2 6 -4 13 -5 17 -1 4 -9 29 -17 55 -8 27 -17 59 -20 73 -15
70 -20 73 -129 76 -143 4 -390 14 -455 19 -30 2 -84 7 -120 9 -106 8 -192 16
-236 22 -29 3 -41 1 -41 -8z"/>
<path d="M6135 5964 c-540 -72 -1030 -372 -1391 -849 -241 -319 -411 -672
-518 -1075 -28 -104 -71 -316 -81 -395 -3 -27 -10 -79 -16 -115 -17 -111 -23
-484 -10 -605 80 -751 415 -1355 1011 -1822 366 -286 867 -481 1340 -520 118
-10 349 -10 453 0 531 51 1072 290 1517 672 65 56 287 280 341 345 495 594
727 1350 612 2000 -145 822 -798 1625 -1677 2060 -345 170 -690 273 -1036 309
-127 13 -431 10 -545 -5z m515 -1137 c14 -12 32 -35 40 -52 8 -16 21 -38 29
-47 8 -10 11 -18 6 -18 -4 0 -2 -7 5 -15 7 -8 9 -15 5 -15 -5 0 0 -9 9 -19 15
-17 22 -34 25 -63 1 -4 10 -16 21 -26 11 -10 21 -28 23 -40 2 -11 11 -30 20
-40 9 -10 17 -24 17 -31 0 -7 8 -25 19 -39 10 -15 22 -42 26 -59 3 -18 10 -33
15 -33 9 0 17 -21 25 -59 2 -12 11 -28 19 -37 9 -8 16 -21 16 -27 0 -7 9 -23
20 -37 11 -14 20 -31 20 -38 0 -8 10 -28 22 -45 12 -16 22 -38 23 -47 0 -9 11
-33 24 -54 13 -20 21 -40 18 -43 -3 -3 6 -17 20 -30 17 -18 38 -27 66 -28 23
-2 42 -4 42 -5 0 -2 14 -4 30 -6 29 -3 70 -11 70 -14 0 -5 48 -12 105 -16 100
-6 114 -8 122 -18 9 -13 32 -18 118 -22 95 -4 133 -8 147 -17 12 -8 114 -21
238 -33 75 -6 149 -39 141 -61 -3 -7 -1 -13 4 -13 5 0 8 -18 6 -40 -4 -43 -32
-72 -534 -561 l-211 -206 6 -44 c8 -69 9 -73 15 -89 12 -29 21 -76 24 -124 1
-27 7 -60 13 -75 6 -14 13 -44 16 -66 3 -22 8 -56 10 -75 3 -19 7 -65 9 -102
2 -37 9 -74 15 -82 7 -8 10 -20 7 -25 -4 -5 -2 -12 3 -16 5 -3 10 -13 9 -23
-1 -57 12 -142 26 -176 9 -21 16 -64 16 -95 0 -50 -4 -61 -27 -83 -24 -22 -36
-25 -82 -24 -34 1 -57 7 -65 17 -6 8 -27 21 -46 29 -19 8 -41 20 -48 27 -7 7
-20 13 -27 13 -17 0 -103 45 -125 65 -9 8 -24 15 -32 15 -9 0 -21 6 -27 14 -7
8 -26 18 -42 21 -17 4 -33 13 -36 20 -2 8 -19 17 -36 20 -18 4 -48 17 -67 29
-19 11 -38 20 -42 19 -4 -2 -12 6 -18 17 -6 11 -15 18 -20 15 -5 -3 -11 -1
-15 5 -4 6 -10 8 -14 5 -5 -2 -16 4 -26 15 -9 10 -30 22 -47 25 -16 4 -32 13
-35 21 -3 8 -13 14 -22 14 -9 0 -38 11 -66 25 -62 30 -78 30 -140 0 -27 -14
-56 -25 -62 -25 -7 0 -13 -4 -13 -9 0 -5 -16 -15 -36 -21 -20 -7 -45 -20 -56
-29 -10 -9 -22 -16 -26 -17 -18 -2 -48 -19 -59 -33 -7 -9 -13 -12 -13 -7 0 4
-15 -3 -33 -17 -19 -14 -50 -29 -70 -32 -20 -4 -37 -11 -37 -15 0 -7 -82 -50
-122 -63 -10 -4 -18 -11 -18 -16 0 -5 -15 -15 -34 -21 -19 -6 -40 -18 -46 -26
-7 -7 -21 -14 -32 -14 -11 0 -31 -9 -45 -20 -14 -11 -31 -20 -38 -20 -7 0 -25
-10 -40 -22 -19 -15 -43 -22 -80 -23 -85 -3 -109 29 -99 131 4 36 13 72 20 79
9 9 14 37 14 76 0 35 7 90 15 123 8 34 21 115 29 181 9 66 20 136 26 155 6 19
13 53 15 75 7 84 21 152 33 169 5 6 8 35 7 63 -1 43 -6 59 -30 85 -17 18 -36
37 -43 41 -7 5 -86 82 -177 173 -90 90 -168 164 -174 164 -5 0 -13 9 -16 20
-3 11 -10 20 -15 20 -17 0 -273 265 -280 290 -21 73 32 125 136 134 32 2 59 5
59 6 0 0 29 3 65 6 36 2 89 11 118 19 28 9 93 16 142 17 50 1 90 6 90 11 0 4
5 5 10 2 6 -4 16 -2 23 3 15 12 65 22 137 26 30 2 75 9 100 17 47 13 56 15
133 22 57 6 79 23 97 77 7 22 17 40 22 40 4 0 8 5 8 12 0 12 44 113 61 138 5
8 16 29 24 45 9 17 19 37 25 45 5 8 11 27 14 42 4 15 12 33 20 40 11 12 28 48
31 68 0 3 9 17 19 32 9 15 19 34 20 42 1 8 9 23 18 33 9 10 17 23 19 28 4 23
13 40 25 47 6 4 15 24 18 43 4 20 14 39 22 42 7 3 14 13 14 22 0 10 3 21 8 25
4 4 7 11 8 14 0 4 10 27 22 52 36 75 103 100 152 57z"/>
<path d="M1927 5733 c-8 -15 -24 -55 -37 -88 -12 -33 -29 -75 -37 -93 -8 -18
-11 -37 -7 -44 4 -6 3 -8 -2 -5 -8 5 -69 -148 -78 -194 -1 -8 -9 -30 -18 -50
-9 -20 -18 -44 -21 -55 -3 -10 -24 -77 -46 -149 -91 -294 -204 -787 -235
-1030 -3 -22 -7 -49 -10 -60 -2 -11 -7 -45 -10 -75 -4 -30 -13 -99 -20 -153
-14 -112 -18 -106 70 -123 46 -10 45 -9 64 -16 8 -3 87 -25 175 -47 88 -23
171 -46 185 -51 14 -4 50 -15 80 -24 30 -8 125 -36 210 -62 85 -25 160 -47
165 -48 6 -1 15 -4 20 -7 6 -3 30 -12 55 -19 41 -12 402 -133 525 -175 28 -10
104 -37 170 -62 66 -25 125 -46 130 -47 6 -2 24 -9 40 -15 49 -21 107 -41 117
-41 8 0 22 28 75 150 8 19 26 58 39 87 21 45 44 98 49 113 1 3 12 28 25 55 54
120 74 165 107 240 19 44 44 99 55 123 12 23 21 49 21 57 0 8 4 15 8 15 4 0
11 10 15 23 4 12 19 49 34 82 51 112 58 130 74 195 18 70 54 192 66 225 5 11
13 34 18 50 23 66 95 243 123 299 16 33 29 60 29 61 0 2 -60 28 -255 110 -65
28 -252 107 -280 120 -16 7 -64 27 -105 44 -41 18 -84 36 -95 41 -58 26 -128
56 -195 85 -41 18 -96 42 -122 54 -90 40 -143 64 -228 101 -126 56 -268 121
-520 238 -36 16 -119 55 -185 87 -66 31 -140 66 -165 78 -25 11 -48 22 -52 24
-4 2 -13 -9 -21 -24z"/>
<path d="M300 3338 c12 -29 25 -65 30 -79 4 -14 12 -34 18 -45 6 -10 23 -48
39 -84 59 -139 213 -435 274 -528 16 -24 29 -45 29 -48 0 -2 33 -52 73 -111
39 -58 82 -121 95 -139 12 -19 24 -34 27 -34 2 0 1 42 -2 93 -8 118 -9 671 -1
803 l6 101 -81 19 c-45 10 -86 19 -92 20 -30 6 -325 64 -350 68 -16 3 -43 8
-58 12 l-28 6 21 -54z"/>
<path d="M1357 3146 c-16 -40 -10 -763 7 -926 2 -19 7 -77 11 -127 3 -51 8
-103 10 -115 2 -13 6 -50 9 -83 3 -33 8 -69 10 -81 2 -12 7 -45 11 -75 3 -30
8 -62 11 -72 8 -25 91 -102 254 -235 36 -30 74 -61 85 -70 108 -87 441 -312
463 -312 7 0 12 -3 12 -7 0 -5 10 -13 23 -19 12 -6 64 -35 116 -63 51 -29 98
-50 103 -49 5 2 25 39 45 83 19 44 43 98 53 120 10 22 46 103 80 180 34 77 75
168 91 203 16 35 29 65 29 67 0 2 13 32 29 67 69 149 411 921 411 927 0 4 -15
12 -32 18 -69 23 -154 54 -173 63 -48 24 -703 246 -866 294 -46 14 -138 41
-204 61 -66 19 -127 37 -135 39 -8 1 -48 13 -88 25 -40 12 -77 19 -82 16 -6
-3 -10 -2 -10 3 0 5 -50 21 -111 36 -61 15 -122 31 -134 36 -16 6 -25 5 -28
-4z"/>
<path d="M3648 2351 c-33 -75 -231 -519 -259 -579 -16 -35 -29 -65 -29 -67 0
-2 -20 -48 -45 -101 -25 -53 -45 -98 -45 -100 0 -2 -12 -29 -26 -61 -14 -32
-44 -98 -66 -148 -22 -49 -55 -123 -74 -163 -19 -40 -34 -75 -34 -77 0 -2 -18
-43 -40 -90 -22 -47 -40 -92 -40 -100 0 -7 -3 -15 -8 -17 -13 -6 -62 -132 -54
-140 8 -8 178 -68 317 -111 74 -24 281 -78 350 -92 93 -19 308 -56 355 -61 30
-3 57 -8 59 -10 3 -3 59 32 71 46 3 3 22 14 43 25 20 11 37 23 37 27 0 5 4 8
10 8 5 0 37 19 70 43 189 133 337 241 426 311 l101 78 -121 122 c-133 133
-169 173 -235 259 -24 31 -47 57 -52 57 -5 0 -9 5 -9 11 0 6 -26 47 -58 92
-74 106 -177 285 -236 412 -26 55 -51 108 -56 117 -6 10 -10 22 -10 27 0 5 -8
26 -17 47 -9 22 -17 41 -17 44 -1 3 -10 30 -20 61 -18 52 -23 58 -68 78 -27
12 -54 18 -60 15 -6 -4 -8 -3 -5 3 3 5 -27 23 -67 39 l-73 30 -15 -35z"/>
<path d="M5125 654 c-16 -14 -88 -70 -160 -126 -71 -56 -134 -105 -140 -111
-11 -10 153 0 284 18 61 8 107 14 161 21 25 3 65 10 90 15 25 6 63 13 85 16
38 5 74 23 47 23 -22 0 -233 109 -294 151 -33 24 -37 24 -73 -7z"/>
</g>
</svg>
